<?xml version="1.0" encoding="utf-8"?>
<!-- Generator: Adobe Illustrator 16.0.0, SVG Export Plug-In . SVG Version: 6.00 Build 0)  -->
<!DOCTYPE svg PUBLIC "-//W3C//DTD SVG 1.1//EN" "http://www.w3.org/Graphics/SVG/1.1/DTD/svg11.dtd">
<svg version="1.1" id="图层_1" xmlns="http://www.w3.org/2000/svg" xmlns:xlink="http://www.w3.org/1999/xlink" x="0px" y="0px"
	 width="1556px" height="1968px" viewBox="0 0 1556 1968" enable-background="new 0 0 1556 1968" xml:space="preserve">
<g>
	<g>
		<path fill-rule="evenodd" clip-rule="evenodd" fill="#F29802" d="M961.165,1317.756c4.26-2.837,10.816-3.148,16.288-3.075
			c20.594,0.276,41.365,3.252,61.732,1.441c40.575-3.614,73.677-21.118,85.717-62.876c5.156-17.886,5.322-37.909,4.243-56.761
			c-3.323-58.105-51.594-73.451-96.121-57.389c-11.036,3.983-19.901,16.862-27.137,27.448c-4.649,6.803-4.494,16.886-6.492,25.5
			c-1.245,0.571-2.489,1.14-3.735,1.712c-10.138-16.438-21.855-32.121-30.139-49.448c-34.106-71.326-45.365-148.05-51.324-225.915
			c-0.791-10.328,4.823-11.235,12.379-10.177c48.391,6.781,97.147,11.719,145.033,21.104c41.978,8.229,82.136,23.491,117.357,49.124
			c3.868,2.816,7.196,6.376,13.045,11.628c-10.005,1.802-16.639,2.25-22.784,4.224c-34.598,11.125-43.229,40.676-35.575,78.891
			c4.429,22.11,18.67,37.927,40.728,41.897c20.467,3.683,41.981,5.06,62.654,3.205c27.136-2.438,48.31-17.308,62.39-41.283
			c19.215-32.717,16.515-68.435,12.958-103.771c-1.199-11.901,0.479-21.085,6.756-30.938
			c32.315-50.704,48.184-106.203,46.985-166.453c-1.271-63.997-20.291-122.534-53.793-176.761c-3.343-5.409-6.507-12.11-6.484-18.2
			c0.079-21.511,3.124-43.08,2.263-64.515c-3.104-77.345-89.932-122.116-156.261-81.223c-23.723,14.625-27.521,37.258-26.639,62.541
			c1.104,31.609,18.631,51.189,49.799,54.249c2.903,0.284,5.717,1.484,8.573,2.26c0.447,1.351,0.896,2.702,1.346,4.052
			c-13.717,9.023-26.8,19.248-41.258,26.867c-71.493,37.679-149.549,49.686-228.693,57.15c-8.762,0.827-10.962-3.119-10.378-10.911
			c5.523-73.548,16.742-145.965,47.188-213.842c9.007-20.084,22.166-38.309,33.423-57.384c1.666,0.626,3.333,1.252,5.001,1.877
			c0.477,4.005,0.846,8.028,1.45,12.016c3.042,20.022,12.769,35.828,32.556,41.797c12.05,3.634,25.384,4.313,38.108,4.121
			c24.526-0.368,45.771-15.034,51.51-38.67c4.672-19.243,6.642-39.849,5.577-59.622c-1.883-34.935-20.495-60.148-52.752-74.454
			c-30.626-13.582-62.795-10.49-94.971-8.786c-8.378,0.445-17.588-1.881-25.365-5.314c-27.957-12.344-55.076-26.655-83.307-38.275
			c-16.968-6.983-34.286-11.204-49.835-12.852l-41.967-0.681l-25.779,1.746c-4.658,0.195-8.766,0.956-11.449,1.358
			c-51.018,7.662-97.516,26.47-141.043,54.116c-3.231,2.053-8.108,2.291-12.172,2.133c-21.994-0.851-44.106-4.164-65.924-2.737
			c-37.041,2.423-67.432,17.819-84.16,53.453c-11.593,24.695-9.821,50.757-5.991,76.385c3.176,21.245,13.323,40.139,35.19,47.135
			c13.33,4.263,28.249,5.459,42.351,4.979c21.319-0.726,37.342-11.715,45.047-32.244c3.073-8.188,4.127-17.133,6.1-25.734
			c1.273-0.532,2.546-1.064,3.82-1.597c10.138,16.495,21.836,32.244,30.14,49.616c34.098,71.332,45.313,148.059,51.258,225.921
			c0.801,10.472-5.116,11.066-12.515,10.03c-48.392-6.768-97.145-11.725-145.03-21.102c-41.986-8.217-82.097-23.58-117.313-49.195
			c-3.847-2.797-7.097-6.416-12.116-11.021c4.556-1.476,6.229-2.308,7.983-2.544c30.573-4.125,49.354-21.13,51.667-46.881
			c3.637-40.488-9.848-67.943-41.654-75.622c-20.055-4.841-41.866-5.476-62.561-3.847c-27.741,2.184-49.558,16.999-63.681,41.598
			c-19.897,34.656-16.839,72.139-11.931,109.41c1.288,9.77-0.013,16.979-4.809,25.495c-65.394,116.179-70.11,231.921,3.329,346.964
			c3.583,5.612,5.699,13.14,5.801,19.816c0.323,21.06-2.189,42.244-0.778,63.187c2.861,42.417,28.421,75.135,67.793,85.485
			c27.314,7.178,55.476,6.092,81.888-5.364c20.718-8.988,31.438-25.985,32.686-48.598c0.396-7.178,0.228-14.404-0.007-21.598
			c-0.875-26.77-19.896-46.899-46.707-49.667c-3.838-0.396-7.65-1.037-11.474-1.565c-0.507-1.571-1.012-3.145-1.517-4.716
			c13.728-9.065,26.814-19.341,41.292-26.988c70.122-37.045,146.668-49.162,224.359-56.939c12.914-1.294,16.544,2.712,14.636,14.704
			c-7.3,45.893-12.542,92.216-22.155,137.613c-8.759,41.358-24.285,80.83-49.659,115.519c-3.37,4.607-7.575,8.603-14.011,15.813
			c-0.377-26.96-8.009-46.028-29.246-56.343c-18.065-8.776-37.387-7.695-56.286-2.938c-19.71,4.961-33.792,17.89-38.056,37.438
			c-4.034,18.494-6.255,37.976-5.33,56.831c1.774,36.129,20.424,62.27,54.124,76.477c32.18,13.568,65.668,10.807,99.265,7.247
			c6.541-0.692,14.052,0.614,20.061,3.329c25.258,11.421,49.455,25.49,75.318,35.18c23.149,8.676,47.973,12.883,72.06,19.061h69.159
			c3.083-1.235,6.068-3.13,9.266-3.605C879.281,1361.487,921.845,1343.936,961.165,1317.756z M927.498,1061.689
			c9.182,45.226,25.062,88.65,54.023,125.818c6.055,7.772,13.479,14.474,22.391,23.908c2.466-7.121,4.838-11.193,5.196-15.438
			c2.981-35.234,15.481-51.419,42.204-53.92c37.162-3.476,60.66,9.747,67.245,43.049c3.885,19.638,4.088,41.563-0.431,60.973
			c-9.219,39.62-40.063,56.201-77.922,62.005c-0.474,0.071-0.962,0.05-1.432,0.135c-57.207,10.152-96.077-13.086-124.016-63.064
			c-30.702-54.924-49.514-113.448-58.332-174.922c-6.931-48.327-9.3-97.336-12.885-146.102c-0.443-6.025-0.656-10.207-0.153-13.108
			l-0.294-7.332h61.758l2.763,25.658C913.418,973.599,918.634,1018.024,927.498,1061.689z M900.72,714.379h-53.113l-4.369-61.282
			h60.552L900.72,714.379z M1327.024,769.883c0.033,1.329,0.068,2.658,0.103,3.986c-16.303,2.271-32.59,4.645-48.907,6.793
			c-114.695,15.108-229.358,30.494-344.13,45.003c-26.135,3.305-54.291,4.921-80.661,5.879c-1.998,0.072-5.811,1.121-6.768-4.147
			c-0.733-4.039-0.688-68.333-0.688-102.822C1007.937,739.769,1166.525,754.826,1327.024,769.883z M845.973,839.405l57.665-1.848
			v61.864l-60.544-3.26L845.973,839.405z M1310.021,1055.028c-9.435,29.396-29.862,49.373-59.727,54.29
			c-20.63,3.399-43.213,2.049-63.71-2.568c-28.076-6.324-41.166-33.275-36.838-66.117c3.258-24.734,20.511-39.046,49.373-41.367
			c5.277-0.425,10.458-2.058,19.071-3.83c-21.806-26.491-46.929-40.157-73.402-51.529c-51.122-21.956-105.216-32.185-160.072-38.83
			c-5.411-0.655-10.834-1.227-16.264-1.746l-56.228-3.908l-0.233-8.242c-0.201-0.974-0.327-2.038-0.359-3.224
			c-0.353-13.428-1.666-26.885-0.943-40.243c0.007-0.138,0.038-0.287,0.062-0.433l-0.274-9.723l8.452,0.248
			c0.438-0.156,0.854-0.249,1.234-0.248c101.746,0.42,202.321,8.818,297.174,49.935c30.507,13.224,59.093,30.135,82.03,54.743
			c5.923,6.355,11.226,14.888,12.991,23.228C1318.677,995.321,1319.497,1025.501,1310.021,1055.028z M1349.175,675.283
			c31.225,87.064,24.886,171.579-21.272,252.426c-7.646,13.391-14.836,15-25.95,4.588c-44.479-41.678-98.828-63.596-156.611-78.488
			c-56.936-14.673-115.041-21.243-173.679-23.696c-2.274-0.096-4.542-0.414-7.042-3.432c128.784-17.16,257.57-34.32,386.353-51.48
			c0.014-2.252,0.028-4.503,0.041-6.754c-146.962-15.595-294.339-27.325-441.458-45.996c7.351-0.597,14.693-1.579,22.054-1.732
			c70.817-1.453,140.788-9.308,209.193-28.298c56.069-15.564,108.637-38.144,152.369-78.029c5.201-4.743,11.855-7.895,21.493-14.162
			C1326.714,626.123,1340.084,649.938,1349.175,675.283z M963.655,646.378c66.383-7.656,131.499-20.832,191.685-52.438
			c16.362-8.593,30.696-21.122,45.674-32.231c3.593-2.664,6.03-6.885,11.937-13.858c-9.716-1.464-15.127-2.699-20.592-3.032
			c-27.368-1.661-44.541-15.275-48.45-38.729c-5.395-32.37,5.364-58.527,30.431-67.552c61.448-22.125,129.016-1.099,136.924,84.354
			c4.941,53.382-16.65,87.239-60.206,113.521c-56.534,34.109-117.987,53.551-182.393,63.155
			c-47.353,7.062-95.448,9.053-143.157,13.869c-2.147,0.217-4.035,0.251-5.707,0.12l-10.244,0.821l0.422-11.307
			c-0.052-1.335,0-2.798,0.164-4.407l1.781-47.729L963.655,646.378z M974.278,249.319c32.777-6.872,65.533-7.445,97.53,5.358
			c26.354,10.546,41.666,30.673,48.041,57.064c5.471,22.653,4.323,45.852-4.311,67.944c-9.858,25.229-37.024,37.678-68.204,31.84
			c-23.665-4.431-36.696-21.314-38.144-48.796c-0.3-5.693-1.903-11.317-3.499-20.325c-30.826,25.505-44.878,55.712-58.671,86.439
			c-30.333,67.576-42.073,218.297-42.073,218.297h-61.711c0,0,9.803-228.341,57.388-309.901
			c13.011-26.715,32.907-50.245,51.01-74.208C956.634,256.416,966.021,251.051,974.278,249.319z M728.107,196.812
			c74.667-15.031,144.946-2.451,210.615,36.074c13.259,7.777,14.727,14.813,4.087,25.932
			c-47.489,49.641-72.48,110.839-85.014,176.489c-10.491,54.942-14.442,111.133-21.297,166.771
			c-0.45,3.659-0.975,12.058-4.415,15.817c-17.876-134.367-35.748-273.485-53.626-407.854c-1.353-0.387-2.709-0.776-4.063-1.162
			c-1.73,4.008-4.626,7.906-5.019,12.04c-8.111,85.491-15.852,171.016-23.852,256.516c-4.818,51.495-9.951,102.962-16.232,154.603
			c-13.6-148.041-18.816-275.374-118.46-387.006C649.196,219.984,687.421,205.002,728.107,196.812z M726.737,833.734v-0.046
			c0-37.92,0-74.525,0-113.324c22.342,0,44.214-0.098,65.907,0h47.457v113.37H726.737z M837.554,839.405
			c-21.327,162.057-42.54,323.249-63.752,484.444c-1.259-0.018-2.521-0.035-3.78-0.053
			c-14.832-161.064-29.665-322.13-44.608-484.392C763.532,839.405,798.757,839.405,837.554,839.405z M727.759,714.379
			c15.172-161.751,30.314-323.165,45.456-484.579c1.269,0.02,2.538,0.041,3.808,0.06c20.763,160.928,41.525,321.855,62.512,484.519
			C799.977,714.379,764.805,714.379,727.759,714.379z M238.516,771.372c0.032-1.509,0.063-3.018,0.095-4.527
			c160.093-14.856,320.185-29.714,481.957-44.729c0,38.088,0,73.629,0,112.512C558.999,813.426,398.757,792.399,238.516,771.372z
			 M720.568,896.558l-62.523,2.864v-60.017l58.439,0.271L720.568,896.558z M661.902,718.802l-2.571-62.483h61.48v58.061
			L661.902,718.802z M626.134,458.193c-12.465-39.604-28.435-77.497-58.947-107.269c-1.993-1.946-4.414-3.456-9.429-7.322
			c-1.851,6.755-4.129,11.086-4.036,15.367c0.773,35.399-20.061,50.353-41.738,52.859c-37.383,4.326-61.666-9.965-68.055-43.766
			c-3.641-19.262-3.906-40.65,0.517-59.636c9.212-39.552,39.743-56.494,77.644-62.414c0.475-0.075,0.961-0.066,1.433-0.148
			c57.016-10.012,96.286,12.45,124.315,62.635c30.926,55.369,49.955,114.326,58.667,176.316
			c5.064,36.055,14.064,164.759,14.064,164.759h-61.236C659.332,649.575,643.797,514.31,626.134,458.193z M254.85,493.91
			c10.144-27.013,30.133-44.431,57.476-49.137c19.729-3.396,41.332-2.571,60.963,1.652c30.331,6.522,44.097,32.56,39.806,66.803
			c-3.155,25.182-20.343,39.113-50.581,41.746c-4.75,0.413-9.288,3.247-13.924,4.962c2.458,3.824,4.273,8.324,7.474,11.367
			c28.961,27.526,64.914,42.096,102.24,53.547c44.898,13.775,90.828,21.838,137.324,26.168l37.785,2.74
			c0.103,0.006,0.207,0.012,0.31,0.018c0.839,0.044,1.643,0.104,2.42,0.181l16.506,1.196v61.945l-8.917-0.063
			c-0.726,0.052-1.485,0.075-2.3,0.057c-3.018-0.074-6.036-0.112-9.054-0.138l-2.442-0.018c-9.592-0.051-19.188,0.063-28.782,0.063
			c-2.11-0.099-4.219-0.206-6.328-0.315h-0.042v-0.001c-78.711-4.048-156.276-13.937-230.527-42.187
			c-36.118-13.743-69.893-31.944-97.604-59.412c-6.844-6.785-13.557-15.836-15.628-24.918
			C243.692,557.996,242.953,525.59,254.85,493.91z M240.463,943.12c-64.313-107.698-58.835-215.147,1.467-322.308
			c0.91-1.62,2.178-3.037,5.448-7.531c104.039,91.384,232.03,105.118,362.262,112.921
			c-131.462,14.919-263.444,25.327-395.026,39.251c0.04,2.29,0.079,4.58,0.119,6.871c142.284,18.952,284.566,37.901,426.849,56.851
			c0.004,0.571,0.008,1.143,0.012,1.714c0.003,0.548,0.007,1.094,0.012,1.642c-4.797,0.319-9.589,0.797-14.391,0.934
			c-85.393,2.423-169.415,12.941-250.065,42.865c-41.81,15.513-80.209,36.721-112.315,68.362
			C254.591,954.788,247.045,954.144,240.463,943.12z M424.501,951.96c-22.236,10.463-41.909,26.49-62.493,40.361
			c-3.684,2.482-6.109,6.829-12.122,13.799c9.654,1.52,15.054,2.805,20.514,3.158c27.578,1.78,44.596,15.219,48.522,38.642
			c5.412,32.278-5.314,58.579-30.34,67.606c-61.412,22.152-129.041,1.255-137.005-84.202c-4.965-53.291,16.44-87.273,60.038-113.571
			c56.533-34.102,118.002-56.84,182.435-66.222c70.634-10.285,158.738-12.126,158.738-12.126v62.189
			C652.788,901.595,504.722,914.208,424.501,951.96z M592.942,1303.461c-33.102,8.608-66.511,9.162-99.088-2.979
			c-32.638-12.166-49.903-37.131-52.51-70.854c-1.302-16.837,0.421-34.754,4.974-51.009c8.087-28.878,33.824-41.429,67.76-36.318
			c24.682,3.718,38.047,21.013,39.589,50.569c0.271,5.209,2.095,10.339,3.84,18.488c30.471-25.372,46.006-54.981,58.34-86.381
			c21.593-54.966,31.899-112.366,37.871-170.6h-0.001l2.948-37.451l0.686-7.853l63.463-4.062l-1.656,49.135l-0.707,0.004
			c-3.412,78.206-13.701,155.321-41.299,229.487c-14.488,38.94-33.783,75.353-63.468,105.178
			C607.747,1294.779,600.64,1301.459,592.942,1303.461z M621.971,1316.451c-2.875-1.593-5.316-3.967-10.938-8.24
			c44.37-49.286,73.856-106.14,90.024-169.849c15.924-62.743,23.476-126.637,28.002-191.116
			c13.68,132.128,27.358,264.255,41.148,396.372c0.033,0.332,1.697,0.492,5.198,1.42c18.901-141.962,37.755-283.588,56.61-425.212
			c0.983-0.041,1.968-0.085,2.952-0.127c0.294,4.719,0.749,9.432,0.857,14.153c1.839,80.463,10.505,159.896,35.864,236.782
			c15.188,46.042,36.615,88.535,70.539,123.976c10.696,11.172,10.153,18.435-1.596,25.281
			C833.751,1382.185,727.558,1374.924,621.971,1316.451z"/>
		<g>
			<path fill-rule="evenodd" clip-rule="evenodd" fill="#F29802" d="M743.497,722.826c0-0.501,1.016-0.348,2.544-0.37
				c2.625-0.04,6.686,0.012,9.149-0.008c9.517-0.08,19.036-0.025,28.555-0.014c6.423,0.006,12.804,0.427,18.964,2.427
				c8.918,2.893,15.116,8.465,16.473,18.099c1.47,10.426-2.303,18.625-11.315,24.311c-5.647,3.562-12.076,4.849-18.562,7.175
				c2.862,0.458,5.731,0.875,8.587,1.383c19.005,3.378,28.878,17.229,24.537,35.022c-3.188,13.067-13.256,18.6-25.365,20.538
				c-8.822,1.344-17.698,1.434-26.554,1.455c-8.256,0.019-16.49,0.012-24.746,0c-0.244-0.001-1.125-0.434-1.129-1.227
				c0.221-1.012,3.921-1.049,5.754-1.031c4.905,0.05,6.681-2.423,6.608-7.097c-0.132-8.479-0.002-16.96-0.002-25.44
				c0-21.285,0.013-42.571-0.03-63.857c-0.018-8.705-0.204-8.813-8.92-9.584C746.515,724.472,743.497,724.423,743.497,722.826z
				 M772.503,801.901c0.005,0,0.01,0,0.016,0c0,7.432,0,14.863,0,22.297c0,2.338,0.211,4.336,3.067,5.226
				c11.483,3.572,25.171-3.125,29.292-14.491c8.145-22.462-2.999-38.87-26.719-39.341c-0.519-0.01-1.045,0.038-1.555-0.034
				c-3.15-0.446-4.246,0.848-4.163,4.049C772.634,787.032,772.503,794.469,772.503,801.901z M781.484,724.812
				c-1.901,0-3.805,0.035-5.704-0.009c-2.412-0.056-3.317,1.048-3.305,3.472c0.071,13.666,0.031,27.334,0.04,41.001
				c0.001,1.392,0.012,2.616,1.864,3.149c12.153,3.507,25.287-4.801,27.223-17.537c0.541-3.558,0.564-7.254,0.346-10.858
				C801.058,729.405,795.957,724.655,781.484,724.812z"/>
		</g>
	</g>
	<g>
		<g>
			<path fill-rule="evenodd" clip-rule="evenodd" fill="#F29802" d="M168.93,1578.468c0-0.744,1.508-0.516,3.777-0.55
				c3.898-0.059,9.927,0.019,13.584-0.012c14.132-0.118,28.267-0.035,42.399-0.02c9.538,0.009,19.012,0.635,28.159,3.603
				c13.242,4.297,22.443,12.568,24.459,26.876c2.182,15.479-3.419,27.653-16.801,36.096c-8.386,5.29-17.933,7.199-27.562,10.652
				c4.251,0.682,8.512,1.301,12.75,2.054c28.219,5.017,42.879,25.582,36.435,52.004c-4.734,19.403-19.684,27.617-37.665,30.496
				c-13.1,1.994-26.279,2.128-39.428,2.159c-12.259,0.03-24.485,0.019-36.743,0c-0.364-0.001-1.672-0.642-1.677-1.82
				c0.327-1.502,5.822-1.557,8.544-1.53c7.284,0.072,9.919-3.599,9.812-10.539c-0.195-12.588-0.003-25.182-0.003-37.774
				c0-31.604,0.02-63.212-0.045-94.818c-0.027-12.925-0.302-13.087-13.245-14.23C173.411,1580.913,168.93,1580.839,168.93,1578.468z
				 M211.998,1695.882c0.008,0,0.016,0,0.023,0c0,11.035,0,22.072,0,33.107c0,3.474,0.314,6.441,4.556,7.76
				c17.05,5.307,37.374-4.639,43.493-21.516c12.092-33.354-4.454-57.718-39.675-58.416c-0.77-0.015-1.551,0.056-2.307-0.052
				c-4.678-0.662-6.305,1.26-6.181,6.011C212.192,1673.804,211.998,1684.845,211.998,1695.882z M225.334,1581.417
				c-2.824,0-5.649,0.051-8.471-0.015c-3.58-0.081-4.925,1.558-4.906,5.156c0.105,20.292,0.046,40.585,0.06,60.879
				c0,2.066,0.016,3.884,2.767,4.678c18.046,5.207,37.549-7.13,40.423-26.04c0.803-5.283,0.837-10.771,0.512-16.123
				C254.397,1588.235,246.824,1581.184,225.334,1581.417z"/>
			<path fill-rule="evenodd" clip-rule="evenodd" fill="#F29802" d="M359.781,1741.722c-2.685-0.02-8.587,0.794-8.587-1.396
				c1.521-2.014,3.639-1.466,5.396-1.614c11.929-1.004,12.877-1.909,12.933-14.088c0.088-19.543,0.037-39.087,0.041-58.631
				c0.003-23.914,0.01-47.831-0.005-71.745c-0.008-13.484-0.029-13.477-13.72-14.316c-1.444-0.088-4.051,0.177-4.204-1.2
				c-0.004-0.714,1.178-0.788,2.695-0.813c1.485-0.023,3.291-0.003,4.542-0.008c35.228-0.171,70.439,0.226,105.666,0.008
				c3.082-0.02,4.864-0.656,5.185,2.395c1.205,11.499,1.844,23.054,2.795,34.577c0.126,1.525,0.506,3.421-1.396,3.913
				c-2.404,0.62-2.957-1.622-3.458-3.221c-1.305-4.159-2.292-8.416-3.562-12.587c-3.683-12.09-11.503-19.006-24.449-19.905
				c-13.866-0.962-27.734-1.208-41.625-1.238c-4.57-0.011-5.544,1.972-5.511,6.071c0.151,19.285,0.186,38.574-0.019,57.857
				c-0.05,4.62,1.291,6.626,6.088,6.246c7.685-0.609,15.397-0.866,23.09-1.385c8.642-0.581,13.576-5.438,15.236-13.753
				c0.905-4.531,1.555-9.112,2.379-13.66c0.283-1.563,0.875-3.124,2.889-2.76c1.671,0.302,1.36,1.931,1.507,3.119
				c0.126,1.014,0.089,2.058,0.039,3.082c-0.939,19.277-0.917,38.553-0.085,57.835c0.08,1.867,1.038,4.78-1.8,5.121
				c-2.81,0.335-2.549-2.543-2.895-4.49c-0.945-5.306-1.512-10.715-2.952-15.881c-2.146-7.705-7.32-12.194-15.623-12.465
				c-7.193-0.234-14.394-0.334-21.577-0.736c-4.485-0.25-6.36,1.122-6.312,6.032c0.228,22.884,0.158,45.771,0.049,68.659
				c-0.018,3.758,0.835,5.698,5.104,5.584c16.448-0.439,32.934-0.109,49.345-1.097c15.281-0.919,21.954-8.417,24.56-24.632
				c0.586-3.652-1.042-10.178,3.807-9.899c3.495,0.198,1.431,6.697,1.401,10.379c-0.092,10.797-0.422,19.943-0.655,30.738
				C470.433,1741.818,389.095,1741.921,359.781,1741.722z"/>
			<path fill-rule="evenodd" clip-rule="evenodd" fill="#F29802" d="M704.583,1741.722c-2.686-0.02-8.586,0.794-8.586-1.396
				c1.521-2.014,3.639-1.466,5.396-1.614c11.928-1.004,12.877-1.909,12.933-14.088c0.089-19.543,0.037-39.087,0.041-58.631
				c0.003-23.914,0.01-47.831-0.006-71.745c-0.009-13.484-0.028-13.477-13.72-14.316c-1.444-0.088-4.051,0.177-4.203-1.2
				c-0.005-0.714,1.178-0.788,2.694-0.813c1.485-0.023,3.29-0.003,4.544-0.008c35.226-0.171,70.44,0.226,105.665,0.008
				c3.082-0.02,4.865-0.656,5.185,2.395c1.205,11.499,1.845,23.054,2.796,34.577c0.126,1.525,0.507,3.421-1.397,3.913
				c-2.402,0.62-2.956-1.622-3.457-3.221c-1.306-4.159-2.293-8.416-3.563-12.587c-3.682-12.09-11.502-19.006-24.448-19.905
				c-13.866-0.962-27.734-1.208-41.625-1.238c-4.569-0.011-5.544,1.972-5.512,6.071c0.152,19.285,0.186,38.574-0.02,57.857
				c-0.049,4.62,1.291,6.626,6.09,6.246c7.685-0.609,15.396-0.866,23.09-1.385c8.643-0.581,13.575-5.438,15.236-13.753
				c0.904-4.531,1.554-9.112,2.378-13.66c0.283-1.563,0.877-3.124,2.89-2.76c1.672,0.302,1.359,1.931,1.507,3.119
				c0.127,1.014,0.091,2.058,0.04,3.082c-0.94,19.277-0.918,38.553-0.085,57.835c0.078,1.867,1.036,4.78-1.801,5.121
				c-2.81,0.335-2.549-2.543-2.895-4.49c-0.945-5.306-1.513-10.715-2.952-15.881c-2.145-7.705-7.319-12.194-15.622-12.465
				c-7.193-0.234-14.393-0.334-21.577-0.736c-4.485-0.25-6.36,1.122-6.312,6.032c0.228,22.884,0.159,45.771,0.049,68.659
				c-0.019,3.758,0.834,5.698,5.103,5.584c16.449-0.439,32.935-0.109,49.346-1.097c15.282-0.919,21.955-8.417,24.56-24.632
				c0.588-3.652-1.043-10.178,3.808-9.899c3.494,0.198,1.431,6.697,1.4,10.379c-0.092,10.797-0.422,19.943-0.656,30.738
				C815.236,1741.818,733.898,1741.921,704.583,1741.722z"/>
			<path fill-rule="evenodd" clip-rule="evenodd" fill="#F29802" d="M1178.386,1619.637c-3.797,1.56-5.002-0.787-5.711-3.819
				c-0.76-3.246-1.253-6.572-2.246-9.744c-4.649-14.867-12.25-20.98-27.809-22.33c-13.351-1.158-26.709-0.48-40.068,0.024
				c-3.646,0.138-4.877,1.56-4.857,5.121c0.104,20.048,0.11,40.097,0.002,60.146c-0.021,3.677,1.36,5,4.971,4.874
				c7.955-0.275,15.93,0.071,23.829-1.371c10.673-1.949,14.048-4.996,16.247-15.563c0.837-4.014,1.2-8.127,1.795-12.191
				c0.229-1.58,0.701-3.328,2.58-3.187c2.075,0.154,1.828,2.16,1.797,3.615c-0.129,5.91-0.275,11.821-0.564,17.724
				c-0.704,14.4-0.17,28.779,0.434,43.164c0.085,2.018,1.502,5.42-1.877,5.638c-3.231,0.208-2.255-3.367-2.83-5.397
				c-0.418-1.475-0.638-3.017-0.854-4.542c-2.804-19.871-6.674-23.264-26.923-23.563c-18.569-0.276-18.569-0.276-18.569,17.835
				c0,16.45-0.023,32.899,0.008,49.352c0.023,11.859,1.947,13.225,13.778,13.727c2.018,0.085,5.453,0.234,7.517,2.679
				c-21.822,0-42.096,0-63.479,0c3.099-2.926,6.246-2.981,8.999-2.9c7.9,0.236,10.251-4.075,10.19-11.064
				c-0.093-10.795,0.017-21.591,0.019-32.387c0.006-33.416,0.006-66.831,0-100.245c-0.002-12.738-0.337-12.802-13.424-13.844
				c-1.489-0.118-4.687,0.516-4.804-0.647c-0.166-2.593,4.744-1.614,7.143-1.628c27.761-0.146,55.855,0.152,83.616,0
				c6.414-0.035,13.085,0,19.577,0c6.565,0,7.396,0.269,7.907,4.78c1.115,9.862,2.304,18.911,3.607,29.573
				C1178.386,1615.521,1178.386,1617.579,1178.386,1619.637z"/>
			<path fill-rule="evenodd" clip-rule="evenodd" fill="#F29802" d="M539.388,1741.826c0.19-15.223-0.316-30.986,0-45.645
				c0.046-2.162-0.665-4.324,2.302-4.629c3.41-0.349,3.305,3.315,3.693,5.686c1.21,7.387,2.923,14.612,6.148,21.399
				c8.429,17.744,27.059,25.852,45.762,19.969c20.412-6.422,25.979-36.515,9.931-54.16c-7.812-8.591-2.936-5.754-22.598-15.875
				c-8.917-4.588-17.582-9.514-25.848-15.266c-23.161-16.118-20.833-48.148-6.094-62.953c8.867-8.903,23.948-14.899,42.559-11.898
				c4.536,0.731,9.224,1.993,13.614,3.431c9.783,3.202,9.709,5.356,13.413-3.967c3.388,0,1.157,0,3.388,0
				c-0.341,12.843,0.78,21.226,0.575,34.278c-0.026,1.663,0.255,4.083-1.71,4.326c-2.195,0.271-2.671-2.163-2.993-3.842
				c-1.475-7.701-4.215-14.819-9.225-20.938c-7.523-9.322-18.774-12.809-32.071-10.073c-10.764,2.215-18.546,11.899-19.53,18.225
				c-2.432,13.196,1.063,24.074,12.265,32.86c6.104,4.788,13.043,8.205,19.888,11.744c7.996,4.135,15.918,8.35,23.269,13.608
				c15.169,10.853,23.855,24.748,20.647,44.074c-3.168,19.091-14.688,29.366-31.937,36.482c-2.958,1.222-5.414,2.277-8.563,3.162
				c-3.283,0.805-6.129,1.449-11.457,1.26c-3.397-0.121-7.317-0.402-10.332-1.26c-6.746-2.254-13.022-4.662-19.739-7.098
				c-9.389-3.404-9.336-2.936-11.874,7.098C541.33,1741.826,540.931,1741.826,539.388,1741.826z"/>
			<path fill-rule="evenodd" clip-rule="evenodd" fill="#F29802" d="M886.929,1741.869c-2.644,0.003-8.089,0.163-8.669-1.742
				c0.634-2.213,7.435-2.354,11.001-2.539c5.137-0.269,7.39-2.927,7.588-7.771c0.117-2.824,0.222-5.648,0.223-8.473
				c0.015-41.638,0.013-83.275,0.008-124.912c-0.002-17.689-1.535-16.42-15.455-16.577c-0.922-0.011-1.84-0.514-2.657-2.04
				c19.861,0,39.722,0,60.414,0c-3.023,4.059-6.418,3.346-9.291,3.236c-7.343-0.278-10.04,3.1-9.95,10.205
				c0.197,15.675-0.036,31.354-0.046,47.033c-0.021,30.072,0.146,60.144-0.134,90.211c-0.055,5.974,1.53,8.099,7.691,7.877
				c14.62-0.525,29.303,0.562,43.853-1.747c17.144-2.721,22.514-7.979,25.447-24.868c0.351-2.022,0.628-4.061,0.822-6.103
				c0.175-1.847,0.262-3.97,2.713-3.754c2.444,0.216,2.188,2.512,2.18,4.255c-0.047,10.793-0.165,21.586-0.245,32.379
				c-0.017,2.312,0.024,2.974,0.04,5.286C995.256,1741.826,914.387,1741.826,886.929,1741.869z"/>
		</g>
		<polygon fill="#F29802" points="1324.087,1648.346 1324.087,1578.936 1301.087,1578.936 1301.087,1648.346 1231.678,1648.346 
			1231.678,1671.346 1301.087,1671.346 1301.087,1740.754 1324.087,1740.754 1324.087,1671.346 1393.496,1671.346 
			1393.496,1648.346 		"/>
	</g>
</g>
</svg>
