<?xml version="1.0" encoding="utf-8"?>
<!-- Generator: Adobe Illustrator 17.0.0, SVG Export Plug-In . SVG Version: 6.00 Build 0)  -->
<!DOCTYPE svg PUBLIC "-//W3C//DTD SVG 1.1//EN" "http://www.w3.org/Graphics/SVG/1.1/DTD/svg11.dtd">
<svg version="1.1" id="图层_1" xmlns="http://www.w3.org/2000/svg" xmlns:xlink="http://www.w3.org/1999/xlink" x="0px" y="0px"
	 width="40px" height="40px" viewBox="0 0 40 40" enable-background="new 0 0 40 40" xml:space="preserve">
<g>
	<path fill-rule="evenodd" clip-rule="evenodd" fill="#F29802" stroke="#F39800" stroke-width="0.5" stroke-miterlimit="10" d="
		M24.058,27.757c0.097-0.064,0.245-0.071,0.369-0.07c0.467,0.006,0.938,0.074,1.399,0.033c0.92-0.082,1.67-0.479,1.943-1.425
		c0.117-0.405,0.121-0.859,0.096-1.286c-0.075-1.317-1.169-1.665-2.178-1.301c-0.25,0.09-0.451,0.382-0.615,0.622
		c-0.105,0.154-0.102,0.383-0.147,0.578c-0.028,0.013-0.056,0.026-0.085,0.039c-0.23-0.373-0.495-0.728-0.683-1.121
		c-0.773-1.617-1.028-3.355-1.163-5.12c-0.018-0.234,0.109-0.255,0.281-0.231c1.097,0.154,2.202,0.266,3.287,0.478
		c0.951,0.187,1.862,0.532,2.66,1.113c0.088,0.064,0.163,0.145,0.296,0.264c-0.227,0.041-0.377,0.051-0.516,0.096
		c-0.784,0.252-0.98,0.922-0.806,1.788c0.1,0.501,0.423,0.86,0.923,0.95c0.464,0.083,0.951,0.115,1.42,0.073
		c0.615-0.055,1.095-0.392,1.414-0.936c0.435-0.741,0.374-1.551,0.294-2.352c-0.027-0.27,0.011-0.478,0.153-0.701
		c0.732-1.149,1.092-2.407,1.065-3.772c-0.029-1.45-0.46-2.777-1.219-4.006c-0.076-0.123-0.147-0.274-0.147-0.412
		c0.002-0.488,0.071-0.976,0.051-1.462c-0.07-1.753-2.038-2.768-3.541-1.841c-0.538,0.331-0.624,0.844-0.604,1.417
		c0.025,0.716,0.422,1.16,1.129,1.23c0.066,0.006,0.13,0.034,0.194,0.051c0.01,0.031,0.02,0.061,0.03,0.092
		c-0.311,0.205-0.607,0.436-0.935,0.609c-1.62,0.854-3.389,1.126-5.183,1.295c-0.199,0.019-0.248-0.071-0.235-0.247
		c0.125-1.667,0.379-3.308,1.069-4.847c0.204-0.455,0.502-0.868,0.757-1.301c0.038,0.014,0.076,0.028,0.113,0.043
		c0.011,0.091,0.019,0.182,0.033,0.272c0.069,0.454,0.289,0.812,0.738,0.947c0.273,0.082,0.575,0.098,0.864,0.093
		c0.556-0.008,1.037-0.341,1.167-0.876c0.106-0.436,0.151-0.903,0.126-1.351c-0.043-0.792-0.465-1.363-1.196-1.687
		c-0.694-0.308-1.423-0.238-2.152-0.199c-0.19,0.01-0.399-0.043-0.575-0.12c-0.634-0.28-1.248-0.604-1.888-0.867
		c-0.385-0.158-0.777-0.254-1.129-0.291L19.98,2l-0.584,0.04c-0.106,0.004-0.199,0.022-0.259,0.031
		c-1.156,0.174-2.21,0.6-3.197,1.226c-0.073,0.047-0.184,0.052-0.276,0.048c-0.498-0.019-1-0.094-1.494-0.062
		c-0.839,0.055-1.528,0.404-1.907,1.211C12,5.054,12.04,5.645,12.127,6.226c0.072,0.481,0.302,0.91,0.798,1.068
		c0.302,0.097,0.64,0.124,0.96,0.113c0.483-0.016,0.846-0.266,1.021-0.731c0.07-0.186,0.094-0.388,0.138-0.583
		c0.029-0.012,0.058-0.024,0.087-0.036c0.23,0.374,0.495,0.731,0.683,1.124c0.773,1.617,1.027,3.356,1.162,5.12
		c0.018,0.237-0.116,0.251-0.284,0.227c-1.097-0.153-2.202-0.266-3.287-0.478c-0.952-0.186-1.861-0.534-2.659-1.115
		c-0.087-0.063-0.161-0.145-0.275-0.25c0.103-0.033,0.141-0.052,0.181-0.058c0.693-0.093,1.119-0.479,1.171-1.063
		c0.082-0.918-0.223-1.54-0.944-1.714c-0.455-0.11-0.949-0.124-1.418-0.087C8.832,7.814,8.337,8.15,8.017,8.707
		c-0.451,0.785-0.382,1.635-0.27,2.48c0.029,0.221,0,0.385-0.109,0.578c-1.482,2.633-1.589,5.256,0.075,7.864
		c0.081,0.127,0.129,0.298,0.131,0.449c0.007,0.477-0.05,0.957-0.018,1.432c0.065,0.961,0.644,1.703,1.536,1.937
		c0.619,0.163,1.257,0.138,1.856-0.122c0.47-0.204,0.713-0.589,0.741-1.101c0.009-0.163,0.005-0.326,0-0.489
		c-0.02-0.607-0.451-1.063-1.059-1.126c-0.087-0.009-0.173-0.024-0.26-0.035c-0.011-0.036-0.023-0.071-0.034-0.107
		c0.311-0.205,0.608-0.438,0.936-0.612c1.589-0.84,3.324-1.114,5.085-1.29c0.293-0.029,0.375,0.061,0.332,0.333
		c-0.165,1.04-0.284,2.09-0.502,3.119c-0.199,0.937-0.55,1.832-1.125,2.618c-0.076,0.104-0.172,0.195-0.318,0.358
		c-0.009-0.611-0.182-1.043-0.663-1.277c-0.409-0.199-0.847-0.174-1.276-0.067c-0.447,0.112-0.766,0.405-0.862,0.848
		c-0.091,0.419-0.142,0.861-0.121,1.288c0.04,0.819,0.463,1.411,1.227,1.733c0.729,0.308,1.488,0.245,2.25,0.164
		c0.148-0.016,0.318,0.014,0.455,0.075c0.572,0.259,1.121,0.578,1.707,0.797c0.525,0.197,1.087,0.292,1.633,0.432h1.567
		c0.07-0.028,0.138-0.071,0.21-0.082C22.203,28.748,23.167,28.35,24.058,27.757z M23.295,21.954
		c0.208,1.025,0.568,2.009,1.224,2.852c0.137,0.176,0.305,0.328,0.507,0.542c0.056-0.161,0.11-0.254,0.118-0.35
		c0.068-0.799,0.351-1.165,0.957-1.222c0.842-0.079,1.375,0.221,1.524,0.976c0.088,0.445,0.093,0.942-0.01,1.382
		c-0.209,0.898-0.908,1.274-1.766,1.405c-0.011,0.002-0.022,0.001-0.032,0.003c-1.297,0.23-2.177-0.297-2.811-1.429
		c-0.696-1.245-1.122-2.571-1.322-3.964c-0.157-1.095-0.211-2.206-0.292-3.311c-0.01-0.137-0.015-0.231-0.003-0.297l-0.007-0.166
		h1.4l0.063,0.582C22.976,19.957,23.095,20.964,23.295,21.954z M22.689,14.082h-1.204l-0.099-1.389h1.372L22.689,14.082z
		 M32.35,15.34c0.001,0.03,0.002,0.06,0.002,0.09c-0.369,0.051-0.739,0.105-1.108,0.154c-2.599,0.342-5.198,0.691-7.799,1.02
		c-0.592,0.075-1.23,0.112-1.828,0.133c-0.045,0.002-0.132,0.025-0.153-0.094c-0.017-0.092-0.016-1.549-0.016-2.33
		C25.119,14.658,28.713,14.999,32.35,15.34z M21.448,16.916l1.307-0.042v1.402l-1.372-0.074L21.448,16.916z M31.965,21.803
		c-0.214,0.666-0.677,1.119-1.354,1.23c-0.468,0.077-0.979,0.046-1.444-0.058c-0.636-0.143-0.933-0.754-0.835-1.498
		c0.074-0.561,0.465-0.885,1.119-0.938c0.12-0.01,0.237-0.047,0.432-0.087c-0.494-0.6-1.064-0.91-1.664-1.168
		c-1.159-0.498-2.385-0.729-3.628-0.88c-0.123-0.015-0.246-0.028-0.369-0.04l-1.274-0.089l-0.005-0.187
		c-0.005-0.022-0.007-0.046-0.008-0.073c-0.008-0.304-0.038-0.609-0.021-0.912c0-0.003,0.001-0.007,0.001-0.01l-0.006-0.22
		l0.192,0.006c0.01-0.004,0.019-0.006,0.028-0.006c2.306,0.01,4.585,0.2,6.735,1.132c0.691,0.3,1.339,0.683,1.859,1.241
		c0.134,0.144,0.254,0.337,0.294,0.526C32.161,20.449,32.18,21.133,31.965,21.803z M32.852,13.196
		c0.708,1.973,0.564,3.889-0.482,5.721c-0.173,0.303-0.336,0.34-0.588,0.104c-1.008-0.945-2.24-1.441-3.549-1.779
		c-1.29-0.333-2.607-0.481-3.936-0.537c-0.052-0.002-0.103-0.009-0.16-0.078c2.919-0.389,5.838-0.778,8.756-1.167
		c0-0.051,0.001-0.102,0.001-0.153c-3.331-0.353-6.671-0.619-10.005-1.042c0.167-0.014,0.333-0.036,0.5-0.039
		c1.605-0.033,3.191-0.211,4.741-0.641c1.271-0.353,2.462-0.864,3.453-1.768c0.118-0.107,0.269-0.179,0.487-0.321
		C32.343,12.082,32.646,12.622,32.852,13.196z M24.115,12.541c1.504-0.174,2.98-0.472,4.344-1.188
		c0.371-0.195,0.696-0.479,1.035-0.73c0.081-0.06,0.137-0.156,0.271-0.314c-0.22-0.033-0.343-0.061-0.467-0.069
		c-0.62-0.038-1.009-0.346-1.098-0.878c-0.122-0.734,0.122-1.326,0.69-1.531c1.393-0.501,2.924-0.025,3.103,1.912
		c0.112,1.21-0.377,1.977-1.365,2.573c-1.281,0.773-2.674,1.214-4.134,1.431c-1.073,0.16-2.163,0.205-3.245,0.314
		c-0.049,0.005-0.091,0.006-0.129,0.003l-0.232,0.019l0.01-0.256c-0.001-0.03,0-0.063,0.004-0.1l0.04-1.082L24.115,12.541z
		 M24.356,3.542c0.743-0.156,1.485-0.169,2.21,0.121c0.597,0.239,0.944,0.695,1.089,1.293c0.124,0.513,0.098,1.039-0.098,1.54
		c-0.223,0.572-0.839,0.854-1.546,0.722c-0.536-0.1-0.832-0.483-0.864-1.106c-0.007-0.129-0.043-0.256-0.079-0.461
		c-0.699,0.578-1.017,1.263-1.33,1.959c-0.687,1.532-0.954,4.947-0.954,4.947h-1.399c0,0,0.222-5.175,1.301-7.024
		c0.295-0.605,0.746-1.139,1.156-1.682C23.956,3.703,24.169,3.581,24.356,3.542z M18.776,2.352c1.692-0.341,3.285-0.056,4.773,0.818
		c0.3,0.176,0.334,0.336,0.093,0.588c-1.076,1.125-1.643,2.512-1.927,4c-0.238,1.245-0.327,2.519-0.483,3.78
		c-0.01,0.083-0.022,0.273-0.1,0.358c-0.405-3.045-0.81-6.198-1.215-9.244c-0.031-0.009-0.061-0.018-0.092-0.026
		c-0.039,0.091-0.105,0.179-0.114,0.273c-0.184,1.938-0.359,3.876-0.541,5.814c-0.109,1.167-0.226,2.334-0.368,3.504
		c-0.308-3.355-0.426-6.241-2.685-8.771C16.988,2.877,17.854,2.538,18.776,2.352z M18.745,16.787v-0.001c0-0.859,0-1.689,0-2.568
		c0.506,0,1.002-0.002,1.494,0h1.076v2.569H18.745z M21.257,16.916c-0.483,3.673-0.964,7.326-1.445,10.979
		c-0.029,0-0.057-0.001-0.086-0.001c-0.336-3.65-0.672-7.301-1.011-10.978C19.579,16.916,20.378,16.916,21.257,16.916z
		 M18.769,14.082c0.344-3.666,0.687-7.324,1.03-10.983c0.029,0,0.058,0.001,0.086,0.001c0.471,3.647,0.941,7.295,1.417,10.981
		C20.405,14.082,19.608,14.082,18.769,14.082z M7.68,15.374c0.001-0.034,0.001-0.068,0.002-0.103
		c3.628-0.337,7.257-0.673,10.923-1.014c0,0.863,0,1.669,0,2.55C14.944,16.327,11.312,15.85,7.68,15.374z M18.606,18.211
		l-1.417,0.065v-1.36l1.324,0.006L18.606,18.211z M17.276,14.182l-0.058-1.416h1.393v1.316L17.276,14.182z M16.465,8.276
		c-0.283-0.898-0.644-1.756-1.336-2.431c-0.045-0.044-0.1-0.078-0.214-0.166c-0.042,0.153-0.094,0.251-0.091,0.348
		c0.018,0.802-0.455,1.141-0.946,1.198c-0.847,0.098-1.398-0.226-1.542-0.992c-0.083-0.437-0.089-0.921,0.012-1.352
		c0.209-0.896,0.901-1.28,1.76-1.415c0.011-0.002,0.022-0.001,0.032-0.003c1.292-0.227,2.182,0.282,2.817,1.42
		c0.701,1.255,1.132,2.591,1.33,3.996c0.115,0.817,0.319,3.734,0.319,3.734h-1.388C17.218,12.613,16.866,9.548,16.465,8.276z
		 M8.051,9.085c0.23-0.612,0.683-1.007,1.303-1.114C9.8,7.895,10.29,7.913,10.735,8.009c0.687,0.148,0.999,0.738,0.902,1.514
		c-0.071,0.571-0.461,0.886-1.146,0.946c-0.108,0.009-0.211,0.074-0.316,0.112c0.056,0.087,0.097,0.189,0.169,0.258
		c0.656,0.624,1.471,0.954,2.317,1.214c1.018,0.312,2.059,0.495,3.112,0.593l0.856,0.062c0.002,0,0.005,0,0.007,0
		c0.019,0.001,0.037,0.002,0.055,0.004l0.374,0.027v1.404l-0.202-0.001c-0.016,0.001-0.034,0.002-0.052,0.001
		c-0.068-0.002-0.137-0.003-0.205-0.003l-0.055,0c-0.217-0.001-0.435,0.001-0.652,0.001c-0.048-0.002-0.096-0.005-0.143-0.007
		h-0.001v0c-1.784-0.092-3.542-0.316-5.225-0.956c-0.819-0.311-1.584-0.724-2.212-1.347c-0.155-0.154-0.307-0.359-0.354-0.565
		C7.798,10.538,7.781,9.803,8.051,9.085z M7.725,19.266c-1.458-2.441-1.333-4.876,0.033-7.305c0.021-0.037,0.049-0.069,0.123-0.171
		c2.358,2.071,5.259,2.382,8.21,2.559c-2.979,0.338-5.971,0.574-8.953,0.89c0.001,0.052,0.002,0.104,0.003,0.156
		c3.225,0.43,6.449,0.859,9.674,1.288c0,0.013,0,0.026,0,0.039c0,0.012,0,0.025,0,0.037c-0.109,0.007-0.217,0.018-0.326,0.021
		c-1.935,0.055-3.84,0.293-5.667,0.971c-0.948,0.352-1.818,0.832-2.546,1.549C8.045,19.531,7.874,19.516,7.725,19.266z
		 M11.896,19.467c-0.504,0.237-0.95,0.6-1.416,0.915c-0.083,0.056-0.138,0.155-0.275,0.313c0.219,0.034,0.341,0.064,0.465,0.072
		c0.625,0.04,1.011,0.345,1.1,0.876c0.123,0.732-0.12,1.328-0.688,1.532c-1.392,0.502-2.925,0.028-3.105-1.908
		c-0.113-1.208,0.373-1.978,1.361-2.574c1.281-0.773,2.674-1.288,4.135-1.501c1.601-0.233,3.598-0.275,3.598-0.275v1.409
		C17.069,18.325,13.714,18.611,11.896,19.467z M15.713,27.433c-0.75,0.195-1.507,0.208-2.246-0.068
		c-0.74-0.276-1.131-0.842-1.19-1.606c-0.03-0.382,0.01-0.788,0.113-1.156c0.183-0.654,0.767-0.939,1.536-0.823
		c0.559,0.084,0.862,0.476,0.897,1.146c0.006,0.118,0.047,0.234,0.087,0.419c0.691-0.575,1.043-1.246,1.322-1.958
		c0.489-1.246,0.723-2.547,0.858-3.866h0l0.067-0.849l0.016-0.178l1.438-0.092l-0.038,1.114l-0.016,0
		c-0.077,1.772-0.311,3.52-0.936,5.201c-0.328,0.883-0.766,1.708-1.438,2.384C16.049,27.236,15.888,27.388,15.713,27.433z
		 M16.371,27.727c-0.065-0.036-0.12-0.09-0.248-0.187c1.006-1.117,1.674-2.406,2.04-3.849c0.361-1.422,0.532-2.87,0.635-4.331
		c0.31,2.995,0.62,5.989,0.933,8.983c0.001,0.008,0.038,0.011,0.118,0.032c0.428-3.217,0.856-6.427,1.283-9.637
		c0.022-0.001,0.045-0.002,0.067-0.003c0.007,0.107,0.017,0.214,0.019,0.321c0.042,1.824,0.238,3.624,0.813,5.366
		c0.344,1.043,0.83,2.007,1.599,2.81c0.242,0.253,0.23,0.418-0.036,0.573C21.171,29.217,18.764,29.053,16.371,27.727z"/>
	<g>
		<path fill-rule="evenodd" clip-rule="evenodd" fill="#F29802" stroke="#F39800" stroke-width="0.5" stroke-miterlimit="10" d="
			M19.125,14.274c0-0.011,0.023-0.008,0.058-0.008c0.059-0.001,0.152,0,0.207,0c0.216-0.002,0.431-0.001,0.647,0
			c0.146,0,0.29,0.01,0.43,0.055c0.202,0.066,0.343,0.192,0.373,0.41c0.033,0.236-0.052,0.422-0.256,0.551
			c-0.128,0.081-0.274,0.11-0.421,0.163c0.065,0.01,0.13,0.02,0.195,0.031c0.431,0.077,0.654,0.39,0.556,0.794
			c-0.072,0.296-0.3,0.422-0.575,0.465c-0.2,0.03-0.401,0.032-0.602,0.033c-0.187,0-0.374,0-0.561,0
			c-0.006,0-0.025-0.01-0.026-0.028c0.005-0.023,0.089-0.024,0.13-0.023c0.111,0.001,0.151-0.055,0.15-0.161
			c-0.003-0.192,0-0.384,0-0.577c0-0.482,0-0.965-0.001-1.447c0-0.197-0.005-0.2-0.202-0.217
			C19.194,14.311,19.125,14.31,19.125,14.274z M19.783,16.066C19.783,16.066,19.783,16.066,19.783,16.066c0,0.168,0,0.337,0,0.505
			c0,0.053,0.005,0.098,0.07,0.118c0.26,0.081,0.57-0.071,0.664-0.328c0.185-0.509-0.068-0.881-0.606-0.892
			c-0.012,0-0.024,0.001-0.035-0.001c-0.071-0.01-0.096,0.019-0.094,0.092C19.786,15.729,19.783,15.897,19.783,16.066z
			 M19.986,14.319c-0.043,0-0.086,0.001-0.129,0c-0.055-0.001-0.075,0.024-0.075,0.079c0.002,0.31,0.001,0.619,0.001,0.929
			c0,0.032,0,0.059,0.042,0.071c0.275,0.079,0.573-0.109,0.617-0.397c0.012-0.081,0.013-0.164,0.008-0.246
			C20.43,14.423,20.314,14.315,19.986,14.319z"/>
	</g>
</g>
<g>
	<g>
		<path fill-rule="evenodd" clip-rule="evenodd" fill="#F29802" d="M6.103,33.666c0-0.017,0.034-0.012,0.086-0.012
			c0.088-0.001,0.225,0,0.308,0c0.32-0.003,0.641-0.001,0.961,0c0.216,0,0.431,0.014,0.638,0.082c0.3,0.097,0.509,0.285,0.554,0.609
			c0.049,0.351-0.077,0.627-0.381,0.818c-0.19,0.12-0.406,0.163-0.625,0.241c0.096,0.015,0.193,0.029,0.289,0.047
			c0.64,0.114,0.972,0.58,0.826,1.179c-0.107,0.44-0.446,0.626-0.854,0.691c-0.297,0.045-0.596,0.048-0.894,0.049
			c-0.278,0.001-0.555,0-0.833,0c-0.008,0-0.038-0.015-0.038-0.041c0.007-0.034,0.132-0.035,0.194-0.035
			c0.165,0.002,0.225-0.082,0.222-0.239c-0.004-0.285,0-0.571,0-0.856c0-0.716,0-1.433-0.001-2.149
			c-0.001-0.293-0.007-0.297-0.3-0.323C6.205,33.721,6.103,33.72,6.103,33.666z M7.079,36.327C7.08,36.327,7.08,36.327,7.079,36.327
			c0.001,0.25,0.001,0.5,0.001,0.75c0,0.079,0.007,0.146,0.103,0.176c0.386,0.12,0.847-0.105,0.986-0.488
			c0.274-0.756-0.101-1.308-0.899-1.324c-0.017,0-0.035,0.001-0.052-0.001c-0.106-0.015-0.143,0.029-0.14,0.136
			C7.084,35.826,7.079,36.077,7.079,36.327z M7.382,33.733c-0.064,0-0.128,0.001-0.192,0c-0.081-0.002-0.112,0.035-0.111,0.117
			c0.002,0.46,0.001,0.92,0.001,1.38c0,0.047,0,0.088,0.063,0.106c0.409,0.118,0.851-0.162,0.916-0.59
			c0.018-0.12,0.019-0.244,0.012-0.365C8.04,33.887,7.869,33.727,7.382,33.733z"/>
		<path fill-rule="evenodd" clip-rule="evenodd" fill="#F29802" d="M10.429,37.366c-0.061,0-0.195,0.018-0.195-0.032
			c0.034-0.046,0.082-0.033,0.122-0.037c0.27-0.023,0.292-0.043,0.293-0.319c0.002-0.443,0.001-0.886,0.001-1.329
			c0-0.542,0-1.084,0-1.626c0-0.306-0.001-0.305-0.311-0.324c-0.033-0.002-0.092,0.004-0.095-0.027c0-0.016,0.027-0.018,0.061-0.018
			c0.034-0.001,0.075,0,0.103,0c0.798-0.004,1.596,0.005,2.395,0c0.07,0,0.11-0.015,0.118,0.054
			c0.027,0.261,0.042,0.522,0.063,0.784c0.003,0.035,0.011,0.078-0.032,0.089c-0.054,0.014-0.067-0.037-0.078-0.073
			c-0.03-0.094-0.052-0.191-0.081-0.285c-0.083-0.274-0.261-0.431-0.554-0.451c-0.314-0.022-0.629-0.027-0.943-0.028
			c-0.104,0-0.126,0.045-0.125,0.138c0.003,0.437,0.004,0.874,0,1.311c-0.001,0.105,0.029,0.15,0.138,0.142
			c0.174-0.014,0.349-0.02,0.523-0.031c0.196-0.013,0.308-0.123,0.345-0.312c0.021-0.103,0.035-0.207,0.054-0.31
			c0.006-0.035,0.02-0.071,0.065-0.063c0.038,0.007,0.031,0.044,0.034,0.071c0.003,0.023,0.002,0.047,0.001,0.07
			c-0.021,0.437-0.021,0.874-0.002,1.311c0.002,0.042,0.024,0.108-0.041,0.116c-0.064,0.008-0.058-0.058-0.066-0.102
			c-0.021-0.12-0.034-0.243-0.067-0.36c-0.049-0.175-0.166-0.276-0.354-0.283c-0.163-0.005-0.326-0.008-0.489-0.017
			c-0.102-0.006-0.144,0.025-0.143,0.137c0.005,0.519,0.004,1.037,0.001,1.556c0,0.085,0.019,0.129,0.116,0.127
			c0.373-0.01,0.746-0.002,1.118-0.025c0.346-0.021,0.498-0.191,0.557-0.558c0.013-0.083-0.024-0.231,0.086-0.224
			c0.079,0.004,0.032,0.152,0.032,0.235c-0.002,0.245-0.01,0.452-0.015,0.697C12.937,37.368,11.093,37.37,10.429,37.366z"/>
		<path fill-rule="evenodd" clip-rule="evenodd" fill="#F29802" d="M18.243,37.366c-0.061,0-0.195,0.018-0.195-0.032
			c0.034-0.046,0.082-0.033,0.122-0.037c0.27-0.023,0.292-0.043,0.293-0.319c0.002-0.443,0.001-0.886,0.001-1.329
			c0-0.542,0-1.084,0-1.626c0-0.306-0.001-0.305-0.311-0.324c-0.033-0.002-0.092,0.004-0.095-0.027c0-0.016,0.027-0.018,0.061-0.018
			c0.034-0.001,0.075,0,0.103,0c0.798-0.004,1.596,0.005,2.395,0c0.07,0,0.11-0.015,0.118,0.054
			c0.027,0.261,0.042,0.522,0.063,0.784c0.003,0.035,0.011,0.078-0.032,0.089c-0.054,0.014-0.067-0.037-0.078-0.073
			c-0.03-0.094-0.052-0.191-0.081-0.285c-0.083-0.274-0.261-0.431-0.554-0.451c-0.314-0.022-0.629-0.027-0.943-0.028
			c-0.104,0-0.126,0.045-0.125,0.138c0.003,0.437,0.004,0.874,0,1.311c-0.001,0.105,0.029,0.15,0.138,0.142
			c0.174-0.014,0.349-0.02,0.523-0.031c0.196-0.013,0.308-0.123,0.345-0.312c0.02-0.103,0.035-0.207,0.054-0.31
			c0.006-0.035,0.02-0.071,0.065-0.063c0.038,0.007,0.031,0.044,0.034,0.071c0.003,0.023,0.002,0.047,0.001,0.07
			c-0.021,0.437-0.021,0.874-0.002,1.311c0.002,0.042,0.023,0.108-0.041,0.116c-0.064,0.008-0.058-0.058-0.066-0.102
			c-0.021-0.12-0.034-0.243-0.067-0.36c-0.049-0.175-0.166-0.276-0.354-0.283c-0.163-0.005-0.326-0.008-0.489-0.017
			c-0.102-0.006-0.144,0.025-0.143,0.137c0.005,0.519,0.004,1.037,0.001,1.556c0,0.085,0.019,0.129,0.116,0.127
			c0.373-0.01,0.746-0.002,1.118-0.025c0.346-0.021,0.498-0.191,0.557-0.558c0.013-0.083-0.024-0.231,0.086-0.224
			c0.079,0.004,0.032,0.152,0.032,0.235c-0.002,0.245-0.01,0.452-0.015,0.697C20.751,37.368,18.908,37.37,18.243,37.366z"/>
		<path fill-rule="evenodd" clip-rule="evenodd" fill="#F29802" d="M28.982,34.599c-0.086,0.035-0.113-0.018-0.129-0.087
			c-0.017-0.074-0.028-0.149-0.051-0.221c-0.105-0.337-0.278-0.475-0.63-0.506c-0.303-0.026-0.605-0.011-0.908,0.001
			c-0.083,0.003-0.111,0.035-0.11,0.116c0.002,0.454,0.003,0.909,0,1.363c0,0.083,0.031,0.113,0.113,0.11
			c0.18-0.006,0.361,0.002,0.54-0.031c0.242-0.044,0.318-0.113,0.368-0.353c0.019-0.091,0.027-0.184,0.041-0.276
			c0.005-0.036,0.016-0.075,0.058-0.072c0.047,0.003,0.041,0.049,0.041,0.082c-0.003,0.134-0.006,0.268-0.013,0.402
			c-0.016,0.326-0.004,0.652,0.01,0.978c0.002,0.046,0.034,0.123-0.043,0.128c-0.073,0.005-0.051-0.076-0.064-0.122
			c-0.009-0.033-0.014-0.068-0.019-0.103c-0.064-0.45-0.151-0.527-0.61-0.534c-0.421-0.006-0.421-0.006-0.421,0.404
			c0,0.373-0.001,0.746,0,1.119c0.001,0.269,0.044,0.3,0.312,0.311c0.046,0.002,0.124,0.005,0.17,0.061c-0.495,0-0.954,0-1.439,0
			c0.07-0.066,0.142-0.068,0.204-0.066c0.179,0.005,0.232-0.092,0.231-0.251c-0.002-0.245,0-0.489,0-0.734c0-0.757,0-1.515,0-2.272
			c0-0.289-0.008-0.29-0.304-0.314c-0.034-0.003-0.106,0.012-0.109-0.015c-0.004-0.059,0.108-0.037,0.162-0.037
			c0.629-0.003,1.266,0.003,1.895,0c0.145-0.001,0.297,0,0.444,0c0.149,0,0.168,0.006,0.179,0.108
			c0.025,0.224,0.052,0.429,0.082,0.67C28.982,34.506,28.982,34.552,28.982,34.599z"/>
		<path fill-rule="evenodd" clip-rule="evenodd" fill="#F29802" d="M14.499,37.368c0.004-0.345-0.007-0.702,0-1.034
			c0.001-0.049-0.015-0.098,0.052-0.105c0.077-0.008,0.075,0.075,0.084,0.129c0.027,0.167,0.066,0.331,0.139,0.485
			c0.191,0.402,0.613,0.586,1.037,0.453c0.463-0.146,0.589-0.828,0.225-1.227c-0.177-0.195-0.067-0.13-0.512-0.36
			c-0.202-0.104-0.398-0.216-0.586-0.346c-0.525-0.365-0.472-1.091-0.138-1.427c0.201-0.202,0.543-0.338,0.965-0.27
			c0.103,0.017,0.209,0.045,0.309,0.078c0.222,0.073,0.22,0.121,0.304-0.09c0.077,0,0.026,0,0.077,0
			c-0.008,0.291,0.018,0.481,0.013,0.777c-0.001,0.038,0.006,0.093-0.039,0.098c-0.05,0.006-0.061-0.049-0.068-0.087
			c-0.033-0.175-0.096-0.336-0.209-0.475c-0.171-0.211-0.426-0.29-0.727-0.228c-0.244,0.05-0.42,0.27-0.443,0.413
			c-0.055,0.299,0.024,0.546,0.278,0.745c0.138,0.109,0.296,0.186,0.451,0.266c0.181,0.094,0.361,0.189,0.527,0.308
			c0.344,0.246,0.541,0.561,0.468,0.999c-0.072,0.433-0.333,0.666-0.724,0.827c-0.067,0.028-0.123,0.052-0.194,0.072
			c-0.074,0.018-0.139,0.033-0.26,0.029c-0.077-0.003-0.166-0.009-0.234-0.029c-0.153-0.051-0.295-0.106-0.447-0.161
			c-0.213-0.077-0.212-0.067-0.269,0.161C14.543,37.368,14.534,37.368,14.499,37.368z"/>
		<path fill-rule="evenodd" clip-rule="evenodd" fill="#F29802" d="M22.376,37.369c-0.06,0-0.183,0.004-0.196-0.039
			c0.014-0.05,0.168-0.053,0.249-0.058c0.116-0.006,0.167-0.066,0.172-0.176c0.003-0.064,0.005-0.128,0.005-0.192
			c0-0.944,0-1.887,0-2.831c0-0.401-0.035-0.372-0.35-0.376c-0.021,0-0.042-0.012-0.06-0.046c0.45,0,0.9,0,1.369,0
			c-0.069,0.092-0.145,0.076-0.211,0.073c-0.166-0.006-0.228,0.07-0.226,0.231c0.004,0.355-0.001,0.711-0.001,1.066
			c0,0.682,0.003,1.363-0.003,2.045c-0.001,0.135,0.035,0.184,0.174,0.179c0.331-0.012,0.664,0.013,0.994-0.04
			c0.389-0.062,0.51-0.181,0.577-0.564c0.008-0.046,0.014-0.092,0.019-0.138c0.004-0.042,0.006-0.09,0.061-0.085
			c0.055,0.005,0.05,0.057,0.049,0.096c-0.001,0.245-0.004,0.489-0.006,0.734c0,0.052,0.001,0.067,0.001,0.12
			C24.831,37.368,22.998,37.368,22.376,37.369z"/>
	</g>
	<polygon fill="#F29802" points="32.284,35.249 32.284,33.676 31.762,33.676 31.762,35.249 30.189,35.249 30.189,35.771 
		31.762,35.771 31.762,37.344 32.284,37.344 32.284,35.771 33.857,35.771 33.857,35.249 	"/>
</g>
</svg>
